<svg width="788" height="2019" viewBox="0 0 788 2019" fill="none" xmlns="http://www.w3.org/2000/svg">
<g filter="url(#filter0_f_25_480)">
<path d="M905.394 210.587C1028.67 466.587 317.252 511.554 495.894 710.087C733.894 974.587 256.44 942.704 267.394 1080.09C291.394 1381.09 686.894 1174.59 667.394 1338.59C647.894 1502.59 885.894 1784.09 1058.89 1748.09" stroke="#62ABBB" stroke-opacity="0.59" stroke-width="200"/>
</g>
<path d="M905.394 210.587C1028.67 466.587 317.252 511.554 495.894 710.087C733.894 974.587 256.44 942.704 267.394 1080.09C291.394 1381.09 686.894 1174.59 667.394 1338.59C647.894 1502.59 885.894 1784.09 1058.89 1748.09" stroke="white" stroke-opacity="0.3"/>
<path d="M923.08 210.587C1046.36 466.587 334.938 511.554 513.58 710.087C751.58 974.587 274.126 942.704 285.08 1080.09C309.08 1381.09 704.58 1174.59 685.08 1338.59C665.58 1502.59 903.58 1784.09 1076.58 1748.09" stroke="white" stroke-opacity="0.3"/>
<path d="M940.766 210.587C1064.04 466.587 352.624 511.554 531.266 710.087C769.266 974.587 291.812 942.704 302.766 1080.09C326.766 1381.09 722.266 1174.59 702.766 1338.59C683.266 1502.59 921.266 1784.09 1094.27 1748.09" stroke="white" stroke-opacity="0.3"/>
<path d="M958.452 210.587C1081.73 466.587 370.31 511.554 548.952 710.087C786.952 974.587 309.498 942.704 320.452 1080.09C344.452 1381.09 739.952 1174.59 720.452 1338.59C700.952 1502.59 938.952 1784.09 1111.95 1748.09" stroke="white" stroke-opacity="0.3"/>
<path d="M976.138 210.587C1099.42 466.587 387.996 511.554 566.638 710.087C804.638 974.587 327.184 942.704 338.138 1080.09C362.138 1381.09 757.638 1174.59 738.138 1338.59C718.638 1502.59 956.638 1784.09 1129.64 1748.09" stroke="white" stroke-opacity="0.3"/>
<path d="M993.824 210.587C1117.1 466.587 405.682 511.554 584.324 710.087C822.324 974.587 344.87 942.704 355.824 1080.09C379.824 1381.09 775.324 1174.59 755.824 1338.59C736.324 1502.59 974.324 1784.09 1147.32 1748.09" stroke="white" stroke-opacity="0.3"/>
<defs>
<filter id="filter0_f_25_480" x="1.52588e-05" y="-4.57764e-05" width="1246.47" height="2018.45" filterUnits="userSpaceOnUse" color-interpolation-filters="sRGB">
<feFlood flood-opacity="0" result="BackgroundImageFix"/>
<feBlend mode="normal" in="SourceGraphic" in2="BackgroundImageFix" result="shape"/>
<feGaussianBlur stdDeviation="83.6" result="effect1_foregroundBlur_25_480"/>
</filter>
</defs>
</svg>
